/* XPM */
static const char *GUISetup_xpm[]={
"32 32 177 2",
"      c None",
" 0    c #A5A5A5",
" 1    c #585858",
" 2    c #ADADAD",
" 3    c #CBCFD1",
" 4    c #5F6F77",
" 5    c #676B6D",
" 6    c #484848",
" 7    c #686868",
" 8    c #B5B5B5",
" 9    c #D3D6D8",
" a    c #000000",
" b    c #FF9F48",
" c    c #603F2F",
" d    c #787878",
" e    c #C4C4C4",
" f    c #001422",
" g    c #FFA252",
" h    c #602606",
" i    c #C4CFD4",
" j    c #606060",
" k    c #1D1D1D",
" l    c #70787C",
" m    c #702F0B",
" n    c #FF9750",
" o    c #682600",
" p    c #576369",
" q    c #707070",
" r    c #001D2A",
" s    c #FF974C",
" t    c #FF8F4C",
" u    c #602200",
" v    c #D3DADE",
" w    c #E16C2C",
" x    c #000B14",
" y    c #702600",
" z    c #FF8B4A",
" A    c #CB6833",
" B    c #000B19",
" C    c #CBD6DC",
" D    c #FF9F54",
" E    c #FF934A",
" F    c #684837",
" G    c #FF8748",
" H    c #5F2200",
" I    c #5F2606",
" J    c #FF9B52",
" K    c #BC5822",
" L    c #BCCBD3",
" M    c #FF934E",
" N    c #682200",
" O    c #FF8F48",
" P    c #C4581D",
" Q    c #000F1B",
" R    c #FF8B3D",
" S    c #58483F",
" T    c #6C6C6C",
" U    c #584439",
" V    c #C75C22",
" W    c #6B8794",
" X    c #D6DADC",
" Y    c #525252",
" Z    c #4C4C4C",
" &    c #5C5C5C",
"0     c #545454",
"00    c #666666",
"01    c #000F19",
"02    c #CD662F",
"03    c #190000",
"04    c #6C7C84",
"05    c #646464",
"06    c #605860",
"07    c #AAAAAA",
"08    c #D7D7D7",
"09    c #DFDFDF",
"0a    c #281206",
"0b    c #874422",
"0c    c #00262C",
"0d    c #808080",
"0e    c #005400",
"0f    c #A1A1A1",
"0g    c #D4D4D4",
"0h    c #A4A4A4",
"0i    c #625A5A",
"0j    c #005656",
"0k    c #DA743D",
"0l    c #FF9D50",
"0m    c #002222",
"0n    c #001919",
"0o    c #7A7676",
"0p    c #00B200",
"0q    c #004400",
"0r    c #A10000",
"0s    c #FF0000",
"0t    c #DBDBDB",
"0u    c #C1C1C1",
"0v    c #959595",
"0w    c #BFBFBF",
"0x    c #CCCCCC",
"0y    c #A8A8A8",
"0z    c #1B242C",
"0A    c #DC7239",
"0B    c #FF914A",
"0C    c #644C4C",
"0D    c #7E8284",
"0E    c #807C7C",
"0F    c #6C5C6C",
"0G    c #6A626A",
"0H    c #5A6A6A",
"0I    c #546C6C",
"0J    c #4E4E4E",
"0K    c #9B9B9B",
"0L    c #878787",
"0M    c #868686",
"0N    c #7A7A7A",
"0O    c #D9D9D9",
"0P    c #5A5E60",
"0Q    c #1B0300",
"0R    c #DA643D",
"0S    c #003900",
"0T    c #CECECE",
"0U    c #ACACAC",
"0V    c #B2B2B2",
"0W    c #505050",
"0X    c #828282",
"0Y    c #4E626C",
"0Z    c #CF6831",
"0&    c #FF9352",
"1     c #144C00",
"10    c #00E900",
"11    c #008A00",
"12    c #009200",
"13    c #DDCEDD",
"14    c #D0D0D0",
"15    c #A2A2A2",
"16    c #7E7E7E",
"17    c #DFEAEF",
"18    c #642200",
"19    c #662400",
"1a    c #DFE2EF",
"1b    c #B9A2B9",
"1c    c #BDAEBD",
"1d    c #B9AAB9",
"1e    c #7C7C7C",
"1f    c #D5D5D5",
"1g    c #BBBBBB",
"1h    c #919191",
"1i    c #CCD0D2",
"1j    c #4A352A",
"1k    c #FF954C",
"1l    c #FF9346",
"1m    c #223B48",
"1n    c #B9B9B9",
"1o    c #747474",
"1p    c #C5C5C5",
"1q    c #4A4A4A",
"1r    c #444444",
"1s    c #D2D2D2",
"1t    c #91A1A8",
"1u    c #C45C24",
"1v    c #4C3B33",
"1w    c #B5B9BB",
"1x    c #AEAEAE",
"1y    c #6B6B6B",
"1z    c #6F6F6F",
"1A    c #878A8C",
"1B    c #718188",
"1C    c #737373",
"1D    c #68808B",
"1E    c #503B31",
"1F    c #681D00",
"1G    c #581400",
"1H    c #58707C",
"1I    c #601400",
"1J    c #CB642C",
"1K    c #CBD3D6",
"1L    c #772600",
"                                                                ",
"                                                                ",
"                                                                ",
"                                                                ",
"       0       1     2             3 4 5                        ",
"         6     7   8 8           9 a b c                        ",
"           6   d e 8             f g h i                        ",
"             j k e             l m n o         3 p              ",
"               q               r s t u       v a w x            ",
"               7               y t z A B   C a D E F            ",
"               7               o t G t A H I J z K L            ",
"               7               o t G G z t t G M N              ",
"               7               o t G G G G G O P Q              ",
"               7             i h t G G G z R S L                ",
"               T             U E G G G n V W X                  ",
"       a Y Z 6 & Z 60  j000102 z G G J030405 7 j06 j j00 a      ",
"       Y 80708070709 7 a a0a n G G t0b0c a0d a a0e a a a00      ",
"       Z070f0g0h0f0g0i0j a0k z G G0l a0m0n0o a0p0q0r0s a j      ",
"       60t0u d0v0w0x0y0z0A t G G0B0C0D0E0o0h000F0G0H0I T0       ",
"      0J0K0d0L0M0N0O0P0Q n G G z0R0S a a a0T0y0U0w0w0U0V Z      ",
"      0W0M0L0L0L0X0u0Y0Z z G G0&1 101112111314150T0T150t 6      ",
"       Z0V160M0L0N1718 M G G t191a1b1c1c1d0x0f1e0h0h1e0U Z      ",
"       61f1g1h d1i1j1k G G G1l1m0O d0d0d d0T1n1o1g1g1o1p1q      ",
"      1r080T1s0O1t1u z G G0B1v1w0g071x1x07140T0g0T0T0g0O1r      ",
"      1y1z1z1z1A a n G G z1u1B1C1z1C1C1C1C1z1z1z1z1z1z1z1y      ",
"              1D1l G G G E1E                                    ",
"              1F t G G t1G                                      ",
"               o t G z R1H                                      ",
"              1I s M1J1E                                        ",
"              1K f1L Q                                          ",
"                                                                ",
"                                                                "};
