/* XPM */
static const char *SDRHelp[] = {
/* columns rows colors chars-per-pixel */
"32 32 201 2",
"   c black",
".  c #602060206020",
"X  c #606460646064",
"o  c #62A062A062A0",
"O  c #659765976597",
"+  c #6B0C6B0C6B0C",
"@  c #6C446C446C44",
"#  c #6C6C6C6C6C6C",
"$  c #70C270C270C2",
"%  c #723672367236",
"&  c #747C747C747C",
"*  c #799779977997",
"=  c #7EEF7EEF7EEF",
"-  c #807280728072",
";  c #00C900C9FFBD",
":  c blue",
">  c #01D401D4FF93",
",  c #03420342FFC1",
"<  c #03680368FFFF",
"1  c #04C504C5FF0F",
"2  c #04750475FFFF",
"3  c #05650565FF60",
"4  c #08040804FFFF",
"5  c #08760876FD39",
"6  c #0A500A50FFF9",
"7  c #0A3E0A3EFFFF",
"8  c #0D170D17FCD8",
"9  c #0C250C25FF65",
"0  c #166D166DF8F6",
"q  c #16F516F5F99D",
"w  c #19E219E2F9CF",
"e  c #1BB41BB4F936",
"r  c #1D401D40FFFF",
"t  c #1F1B1F1BFF2D",
"y  c #20992099F9CF",
"u  c #21DC21DCFFFF",
"i  c #24482448FFFF",
"p  c #26DB26DBFF26",
"a  c #2A382A38FFFF",
"s  c #34C834C8F036",
"d  c #356C356CF05C",
"f  c #39FF39FFF064",
"g  c #3D2F3D2FF6FA",
"h  c #3DDE3DDEF746",
"j  c #3ECA3ECAF74C",
"k  c #4FDB4FDBED11",
"l  c #47454745FA62",
"z  c #44BE44BEFFCD",
"x  c #467E467EFFFF",
"c  c #477D477DFFFF",
"v  c #52A452A4EAC0",
"b  c #50765076F628",
"n  c #5B5A5B5AF8E4",
"m  c #58A458A4F99D",
"M  c #5CF55CF5F936",
"N  c #5C835C83FFFF",
"B  c #5F075F07FFFF",
"V  c #68946894E834",
"C  c #6A656A65EA1D",
"Z  c #6B1C6B1CEABC",
"A  c #61366136FF12",
"S  c #619A619AFF26",
"D  c #64966496FFC0",
"F  c #7A5B7A5BF064",
"G  c #727A727AFF4A",
"H  c #79897989F74C",
"J  c #7FA07FA0FFFF",
"K  c #80AE80AE80AE",
"L  c #821582158215",
"P  c #830E830E830E",
"I  c #83F783F783F7",
"U  c #84D484D484D4",
"Y  c #85D685D685D6",
"T  c #874787478747",
"R  c #896089608960",
"E  c #89D489D489D4",
"W  c #8D378D378D37",
"Q  c #8E658E658E65",
"!  c #926B926B926B",
"~  c #930793079307",
"^  c #93FD93FD93FD",
"/  c #9A1E9A1E9A1E",
"(  c #9AF39AF39AF3",
")  c #9D159D159D15",
"_  c #9E7D9E7D9E7D",
"`  c #9EBC9EBC9EBC",
"'  c #A072A072A072",
"]  c #A302A302A302",
"[  c #A44EA44EA44E",
"{  c #A53DA53DA53D",
"}  c #A72AA72AA72A",
"|  c #A8DFA8DFA8DF",
" . c #AB8EAB8EAB8E",
".. c #AC89AC89AC89",
"X. c #ADC4ADC4ADC4",
"o. c #AF3AAF3AAF3A",
"O. c #B182B182B182",
"+. c #B3E9B3E9B3E9",
"@. c #B67CB67CB67C",
"#. c #B746B746B746",
"$. c #B941B941B941",
"%. c #BB13BB13BB13",
"&. c #BD81BD81BD81",
"*. c #BFADBFADBFAD",
"=. c #83E083E0EDBA",
"-. c #88498849EABC",
";. c #8C7A8C7AFFFF",
":. c #94929492E7B3",
">. c #97239723E650",
",. c #98159815E806",
"<. c #9C6F9C6FE9AF",
"1. c #9E799E79F252",
"2. c #A31EA31EEABC",
"3. c #A406A406EAA4",
"4. c #AD93AD93E3F0",
"5. c #A10CA10CFD77",
"6. c #A0F8A0F8FFFF",
"7. c #A2DDA2DDFF60",
"8. c #B102B102F99D",
"9. c #B46EB46EF99D",
"0. c #B764B764FFFF",
"q. c #B846B846FFD0",
"w. c #B7B7B7B7FFFF",
"e. c #BA3CBA3CFD39",
"r. c #BAF4BAF4FF26",
"t. c #BAD0BAD0FFFF",
"y. c #BEA1BEA1FF7E",
"u. c #BF6DBF6DFD77",
"i. c #C0FEC0FEC0FE",
"p. c #C2DBC2DBC2DB",
"a. c #C72CC72CC72C",
"s. c #C822C822C822",
"d. c #C93FC93FC93F",
"f. c #CA3BCA3BCA3B",
"g. c #D06DD06DD06D",
"h. c #D190D190D190",
"j. c #D247D247D247",
"k. c #D50DD50DD50D",
"l. c #D711D711D711",
"z. c #D7F9D7F9D7F9",
"x. c #DB31DB31DB31",
"c. c #DCBBDCBBDCBB",
"v. c #DD75DD75DD75",
"b. c #CA72CA72E7B1",
"n. c #CD46CD46EABC",
"m. c #C7BEC7BEF99D",
"M. c #C74CC74CFB3C",
"N. c #CF9CCF9CF74C",
"B. c #D321D321F061",
"V. c #D74ED74EFFFF",
"C. c #D9DDD9DDF74C",
"Z. c #DC78DC78F74C",
"A. c #DE75DE75F63B",
"S. c #DBB7DBB7FFFF",
"D. c #DC49DC49FFB7",
"F. c #DF23DF23FF83",
"G. c #E227E227E227",
"H. c #E686E686E686",
"J. c #E7C2E7C2E7C2",
"K. c #E94DE94DE94D",
"L. c #EBB9EBB9EBB9",
"P. c #EBF9EBF9EBF9",
"I. c #EA60EA60F064",
"U. c #EB5DEB5DF064",
"Y. c #ED96ED96ED96",
"T. c #EE8FEE8FEE8F",
"R. c #F0B6F0B6F0B6",
"E. c #E227E227F2AF",
"W. c #E10FE10FF359",
"Q. c #E36DE36DFD77",
"!. c #E423E423FFFA",
"~. c #E66DE66DF981",
"^. c #E5F5E5F5FFFF",
"/. c #EC0FEC0FF74C",
"(. c #EF91EF91F9CF",
"). c #F0FAF0FAF0FA",
"_. c #F5B3F5B3F5B3",
"`. c #F677F677F677",
"'. c #F775F775F775",
"]. c #F83CF83CF83C",
"[. c #F890F890F992",
"{. c #F5DCF5DCFEF1",
"}. c #F98AF98AF98A",
"|. c #FAF4FAF4FAF4",
" X c #FBE1FBE1FBE1",
".X c #FC6EFC6EFC6E",
"XX c #F9CAF9CAFFBA",
"oX c #FAE1FAE1FF80",
"OX c #FAF8FAF8FFFF",
"+X c #FB89FB89FE1C",
"@X c #FCA2FCA2FF9E",
"#X c #FC7FFC7FFFFF",
"$X c #FD78FD78FD78",
"%X c #FE92FE92FE92",
"&X c #FD3EFD3EFFC1",
"*X c #FD7CFD7CFFFF",
"=X c #FE48FE48FF46",
"-X c #FFB1FFB1FFB3",
";X c #FFE7FFE7FFFF",
":X c gray100",
">X c None",
/* pixels */
">X>X>X>X>X>X- - K T ^ ` { { { { { / W - - - - >X>X>X>X>X>X>X>X>X",
">X>X>X>X- - T ^ ' | a.L..X.X$X$X].x.@.] / W - - - >X>X>X>X>X>X>X",
">X>X>X- E ^ { a.R.oX$X$X$X$X$X$X$X$X$X].x.O./ ~ - - >X>X>X>X>X>X",
">X>X- ~ | a.P.$X$X$X$X$X$X$X$X$X$X$X$X$X$X].x.%.| { >X>X>X>X>X>X",
">X- ~ O.v.$X$X$X$X$X~.m.0.0.0.e.M.C.}.$X$X$X$X$X$X$X$X>X>X>X>X>X",
"- ~ O.v.$X$X$X$X$XW.,.k l z u 2 w C b.{.$X$X$X$X$X$X$X$X>X>X>X>X",
"E { z.$X$X$X$X$X(.2.v =.W.F.J r ; q C C.$X$X$X$X$X$XR.a.i.>X>X>X",
"~ %.R.$X$X$X$X$XF.S r G y.!.V.N ; ; p 1.$X$X$X$X$X$XH.f.+ o o >X",
"{ z.$X$X$X$X$X$XF.B 2 2 a 1.N.N 2 ; p 1.$X$X$X$X$X$X}.z.* O @ @ ",
"%.R.$X$X$X$X$X$X!.H q 5 h 1.<.d ; 5 z e.$X$X$X$X$X$X}.P.@.& % % ",
"j.$X$X$X$X$X$X$X}.n.F n >.4.b 2 8 z e.oX$X$X$X$X$X$X$X$Xx.T - - ",
"j.$X$X$X$X$X$X$X$X$XoX{.A.,.s 8 z e.$X$X$X$X$X$X$X$X$X$Xv.- - - ",
"j.$X$X$X$X$X$X$X$X$X$X$XF.S 8 h 8.oX$X$X$X$X$X$X$X$X$X$Xv.T = - ",
"j.$X$X$X$X$X$X$X$X$X$X$XF.B y -./.$X$X$X$X$X$X$X$X$X$X$Xx.- - - ",
"f.].$X$X$X$X$X$X$X$X$X$X!.;.D e.$X$X$X$X$X$X$X$X$X$X$X].j.- - - ",
"O.G.$X$X$X$X$X$X$X$X$X$X/.m.e.C.oX$X$X$X$X$X$X$X$X$X}.v.] - - - ",
"/ f.}.$X$X$X$X$X$X$X$X(.3.f e C B.$X$X$X$X$X$X$X$X$X].g.- - - - ",
"W X.G.$X$X$X$X$X$X$X$XF.S 2 ; a 1.$X$X$X$X$X$X$X$X$Xv.{ - - - - ",
"T ` z.$X$X$X$X$X$X$X$X!.H q 5 h 0.$X$X$X$X$X$X$X$X}.i.- - - - - ",
"= ` }.$X$X$X$X$X$X$X$X}.n.F M 3.R.$X$X$X$X$X$X$X}.i.T = - - - - ",
">X>X$X$X}.].}.$X$X$X$X$X$X$XoX$X$X$X$X$X$X$X].R.i.T - - - - - - ",
">X>X>X$Xf.j.H.].$X$X$X$X$X$X$X$X$X$X$X$X}.).x.{ - - - - - - - >X",
">X>X>X>Xi.- ~ &.P.$X}.}.$X$X$X$X$X}.}.].x.X.T - - - - - - - >X>X",
">X>X>X>X>X. o + - / i.P.$X}.}.$X}.v.X.W T = = - - - - - - >X>X>X",
">X>X>X>X>Xo @ % * - T E / a.R.$X$Xv.T - - - - - - - - - >X>X>X>X",
">X>X>X>X>X>X+ % - - - - - { $X$X$Xv.- - - - - - - - - >X>X>X>X>X",
">X>X>X>X>X>X>X>X- - - - - { $X$X$Xv.- - - - - - - >X>X>X>X>X>X>X",
">X>X>X>X>X>X>X>X>X>X>X- - { $X$X$Xv.T - - - >X>X>X>X>X>X>X>X>X>X",
">X>X>X>X>X>X>X>X>X>X>X>X>X>X$X$X$Xj.- - - - >X>X>X>X>X>X>X>X>X>X",
">X>X>X>X>X>X>X>X>X>X>X>X>X>X>X$X] T - - - - >X>X>X>X>X>X>X>X>X>X",
">X>X>X>X>X>X>X>X>X>X>X>X>X>X>X>X- - - - - - >X>X>X>X>X>X>X>X>X>X",
">X>X>X>X>X>X>X>X>X>X>X>X>X>X>X>X- - - - - - >X>X>X>X>X>X>X>X>X>X"
};
