/* XPM */
static const char *UWSDR_xpm[]={
"32 32 104 2",
"      c None",
" 0    c #A5A5A5",
" 1    c #585858",
" 2    c #ADADAD",
" 3    c #484848",
" 4    c #686868",
" 5    c #B5B5B5",
" 6    c #787878",
" 7    c #C4C4C4",
" 8    c #606060",
" 9    c #1D1D1D",
" a    c #707070",
" b    c #6C6C6C",
" c    c #000000",
" d    c #525252",
" e    c #4C4C4C",
" f    c #5C5C5C",
" g    c #545454",
" h    c #605C5C",
" i    c #605860",
" j    c #666666",
" k    c #AAAAAA",
" l    c #D7D7D7",
" m    c #DFDFDF",
" n    c #002222",
" o    c #001D1D",
" p    c #002626",
" q    c #808080",
" r    c #005400",
" s    c #A1A1A1",
" t    c #D4D4D4",
" u    c #A4A4A4",
" v    c #625A5A",
" w    c #004C4C",
" x    c #001919",
" y    c #005858",
" z    c #7A7676",
" A    c #00B200",
" B    c #004400",
" C    c #A10000",
" D    c #FF0000",
" E    c #DBDBDB",
" F    c #C1C1C1",
" G    c #959595",
" H    c #BFBFBF",
" I    c #CCCCCC",
" J    c #A2A2A2",
" K    c #7A7272",
" L    c #807C7C",
" M    c #807078",
" N    c #6C5C6C",
" O    c #6A626A",
" P    c #5A6A6A",
" Q    c #546C6C",
" R    c #4E4E4E",
" S    c #9B9B9B",
" T    c #878787",
" U    c #868686",
" V    c #7A7A7A",
" W    c #D9D9D9",
" X    c #625A62",
" Y    c #CECECE",
" Z    c #A8A8A8",
" &    c #ACACAC",
"0     c #B2B2B2",
"00    c #505050",
"01    c #828282",
"02    c #C1B9C1",
"03    c #60AE60",
"04    c #008E00",
"05    c #009200",
"06    c #009000",
"07    c #008700",
"08    c #00E500",
"09    c #008A00",
"0a    c #DDCEDD",
"0b    c #D0D0D0",
"0c    c #7E7E7E",
"0d    c #BFB7BF",
"0e    c #B7A8B7",
"0f    c #CEBFCE",
"0g    c #B5A6B5",
"0h    c #E2D4E2",
"0i    c #B9A2B9",
"0j    c #BDAEBD",
"0k    c #B9AAB9",
"0l    c #7C7C7C",
"0m    c #D5D5D5",
"0n    c #BBBBBB",
"0o    c #919191",
"0p    c #BDBDBD",
"0q    c #C8C8C8",
"0r    c #B9B9B9",
"0s    c #747474",
"0t    c #C5C5C5",
"0u    c #4A4A4A",
"0v    c #444444",
"0w    c #D2D2D2",
"0x    c #A6A6A6",
"0y    c #AEAEAE",
"0z    c #6B6B6B",
"0A    c #6F6F6F",
"0B    c #717171",
"0C    c #737373",
"                                                                ",
"                                                                ",
"                                                                ",
"                                                                ",
"       0       1     2                                          ",
"         3     4   5 5                                          ",
"           3   6 7 5                                            ",
"             8 9 7                                              ",
"               a                                                ",
"               4                                                ",
"               4                                                ",
"               4                                                ",
"               4                                                ",
"               4                                                ",
"               b                                                ",
"       c d e 3 f e 3 g 8 8 h h h h 8 8 h 8 g 8 8 i 8 8 j c      ",
"       d 5 k l k k m 4 c c n o o n c c p c q c c r c c c j      ",
"       e k s t u s t v w o o o o x y c n x z c A B C D c 8      ",
"       3 E F 6 G H I J K L L L L L M q L z u j N O P Q b g      ",
"       R S q T U V W X c c c c c c B c c c Y Z & H H &0  e      ",
"      00 U T T T010203040506050507080905090a0b J Y Y J E 3      ",
"       e0 0c U T V0b0d0e0e0f0e0g0h0i0j0j0k I s0l u u0l & e      ",
"       30m0n0o 60p0q 5 u u0r u J0b 6 q q 6 Y0r0s0n0n0s0t0u      ",
"      0v l Y0w t Y Y0n Z Z H Z0x t k0y0y k0b Y t Y Y t W0v      ",
"      0z0A0A0A0A0A0A0B0C0C0B0C0C0A0C0C0C0C0A0A0A0A0A0A0A0z      ",
"                                                                ",
"                                                                ",
"                                                                ",
"                                                                ",
"                                                                ",
"                                                                ",
"                                                                "};
